# xmcd CD database file
#
# Track frame offsets:
#	150
#	14549
#	24973
#	40237
#	58826
#	70217
#	85805
#	101691
#	114626
#	131137
#	148367
#	160991
#	178729
#	190765
#
# Disc length: 2694 seconds
#
# Revision: 2
# Processed by: cddbd v1.5.2PL0 Copyright (c) Steve Scherf et al.
# Submitted via: CDex 1.51
#
DISCID=ca0a840e
DTITLE=Blackout - Studnia Bez Wody
DYEAR=1966
DGENRE=Blues
TTITLE0=Nie Przechodz Obok Mnie
TTITLE1=Te Bomby Leca Na Nasz Dom
TTITLE2=Gdzie Chcesz Isc
TTITLE3=Wyspa
TTITLE4=Jej Nie Ma Tu
TTITLE5=Anna
TTITLE6=Spokojnie Spij
TTITLE7=Zaspiewam Ci Tak
TTITLE8=Studnia Bez Wody
TTITLE9=Odejsc Stad
TTITLE10=Moje Srebro To Glos Gitary
TTITLE11=Julia
TTITLE12=Ktos Wzial Mi
TTITLE13=Plomienie
EXTD=YEAR: 1966
EXTT0=
EXTT1=
EXTT2=
EXTT3=
EXTT4=
EXTT5=
EXTT6=
EXTT7=
EXTT8=
EXTT9=
EXTT10=
EXTT11=
EXTT12=
EXTT13=
PLAYORDER=
